<svg xmlns="http://www.w3.org/2000/svg" xmlns:xlink="http://www.w3.org/1999/xlink" version="1.1" x="0px" y="0px" viewBox="0 0 100 125" enable-background="new 0 0 100 100" xml:space="preserve"><path fill="#000000" d="M23.088,15.121c-0.029,0.328,0.199,0.598,0.506,0.598l52.53-0.002c0.305,0,0.536-0.268,0.506-0.596l0,0  c-0.031-0.338-0.307-0.606-0.612-0.606H23.696C23.391,14.515,23.117,14.783,23.088,15.121L23.088,15.121z"/><path fill="#000000" d="M27.628,22.437c0,0-0.038-1.195-0.231-1.572c-0.191-0.374-0.499-0.365-0.499-0.365l-3.293-0.19  c0,0-0.255-0.023-0.41,0.293c-0.156,0.318-0.011,1.278-0.011,1.278l2.327,46.758c0.187,2.7,0.533,3.493,0.829,3.484l2.916,0.343  c0.513-0.043,0.754-0.802,0.597-3.527L27.628,22.437z"/><path fill="#000000" d="M72.558,38.829c0,0,0.023-0.805,0.172-1.057c0.147-0.251,0.387-0.243,0.387-0.243l2.571-0.114  c0,0,0.199-0.015,0.322,0.199c0.123,0.215,0.015,0.861,0.015,0.861l-1.562,31.469c-0.131,1.817-0.398,2.349-0.629,2.342  l-2.275,0.219c-0.401-0.031-0.593-0.543-0.486-2.377L72.558,38.829z"/><path fill="#000000" d="M80.921,13.61c0-1.926-2.512-2.276-5.299-2.276H49.859H24.097c-2.788,0-5.299,0.35-5.299,2.276l1.435,68.382  c-0.004-0.073-0.026-0.134-0.028-0.208c0.003,0.129,0.025,0.23,0.031,0.354l0.002,0.108c0.002,0.093,0.025,0.168,0.03,0.258  c0.03,0.378,0.063,0.754,0.126,1.087c0.023,0.115,0.057,0.221,0.085,0.331c0.708,3.048,2.875,4.174,6.572,4.626  c0,0,8.973,0.996,22.809,1.004c13.836-0.008,22.809-1.004,22.809-1.004c3.697-0.452,5.864-1.578,6.572-4.626  c0.028-0.111,0.062-0.216,0.085-0.331c0.062-0.333,0.095-0.709,0.126-1.087c0.005-0.09,0.028-0.166,0.03-0.258l0.002-0.108  c0.006-0.124,0.028-0.226,0.031-0.354c-0.002,0.074-0.024,0.136-0.028,0.208L80.921,13.61z M76.12,83.467  c0.006,0.544-0.581,1.265-1.631,1.386c0,0-10.896,1.004-24.375,1.004c-0.086,0-0.423,0-0.508,0c-13.48,0-24.375-1.004-24.375-1.004  c-1.05-0.121-1.638-0.842-1.631-1.386l-0.002-3.377c0.083-0.517,0.924-0.932,1.874-0.932c0,0,10.293,1.32,24.145,1.32  c0.082,0,0.405,0,0.488,0c13.851,0,24.145-1.32,24.145-1.32c0.951,0,1.791,0.415,1.874,0.932L76.12,83.467z M79.338,26.187  L77.7,72.274c-0.008,0.408-0.058,1.244-0.058,1.339c0,2.426-10.856,3.886-18.872,3.925c0,0-8.841,0.072-8.91,0.072  c-0.069,0-8.91-0.072-8.91-0.072c-8.016-0.04-18.872-1.499-18.872-3.925c0-0.095-0.05-0.931-0.058-1.339l-1.638-46.087  l-0.457-12.123c0.274-1.505,2.385-1.493,5.044-1.507h24.891H74.75c2.659,0.013,4.77,0.002,5.044,1.507L79.338,26.187z"/></svg>